Coordinates
version=1
nRows=27
nColumns=12
inDegrees=yes

Units are S.I. units (second, meters, Newtons, ...)
Angles are in degrees

endheader
time	SC_y	SC_z	SC_x	AC_y	AC_z	AC_x	GH_y	GH_z	GH_yy	EL_x	PS_y
       0.0              -36.43           31.3           71.0          63.76         -6.263         -14.35         -122.5          44.68         -31.62          134.4          152.9
   0.02828              -36.43           31.3           71.0          63.77         -6.262         -14.35         -122.5          44.68         -31.63          134.3          152.9
   0.05656              -36.43           31.3          70.99          63.77         -6.262         -14.34         -122.5          44.67         -31.65          134.3          152.9
   0.08484              -36.43          31.29          70.98          63.77         -6.261         -14.34         -122.4          44.66         -31.66          134.3          152.9
    0.1131              -36.43          31.29          70.97          63.77         -6.261         -14.33         -122.4          44.65         -31.68          134.3          152.9
    0.1414              -36.43          31.28          70.96          63.77          -6.26         -14.32         -122.4          44.64          -31.7          134.3          152.9
    0.1697              -36.43          31.28          70.96          63.77          -6.26         -14.32         -122.3          44.63         -31.72          134.3          152.8
     0.198              -36.43          31.27          70.95          63.77         -6.259         -14.31         -122.3          44.62         -31.74          134.3          152.8
    0.2262              -36.43          31.27          70.94          63.77         -6.258          -14.3         -122.3          44.61         -31.76          134.3          152.8
    0.2545              -36.42          31.26          70.92          63.77         -6.258         -14.29         -122.2           44.6         -31.78          134.3          152.8
    0.2828              -36.42          31.25          70.91          63.77         -6.257         -14.28         -122.2          44.59         -31.81          134.3          152.8
    0.3111              -36.42          31.24           70.9          63.77         -6.256         -14.28         -122.1          44.57         -31.84          134.2          152.8
    0.3394              -36.42          31.24          70.88          63.77         -6.255         -14.26         -122.1          44.56         -31.87          134.2          152.8
    0.3676              -36.42          31.23          70.87          63.77         -6.254         -14.25         -122.0          44.54          -31.9          134.2          152.8
    0.3959              -36.41          31.22          70.85          63.77         -6.253         -14.24         -122.0          44.52         -31.93          134.2          152.8
    0.4242              -36.41          31.21          70.84          63.77         -6.252         -14.23         -121.9           44.5         -31.97          134.2          152.7
    0.4525              -36.41           31.2          70.82          63.77         -6.251         -14.21         -121.8          44.48         -32.01          134.2          152.7
    0.4808              -36.41          31.19          70.79          63.77         -6.249          -14.2         -121.8          44.46         -32.05          134.1          152.7
    0.5091               -36.4          31.17          70.77          63.77         -6.248         -14.18         -121.7          44.44          -32.1          134.1          152.7
    0.5373               -36.4          31.16          70.75          63.77         -6.246         -14.16         -121.6          44.41         -32.16          134.1          152.7
    0.5656               -36.4          31.14          70.72          63.77         -6.244         -14.14         -121.5          44.38         -32.21          134.1          152.7
    0.5939              -36.39          31.13          70.69          63.77         -6.242         -14.12         -121.4          44.35         -32.28          134.0          152.6
    0.6222              -36.39          31.11          70.65          63.77          -6.24          -14.1         -121.3          44.31         -32.35          134.0          152.6
    0.6505              -36.38          31.08          70.62          63.77         -6.237         -14.07         -121.1          44.27         -32.43          134.0          152.6
    0.6787              -36.38          31.06          70.58          63.77         -6.235         -14.04         -121.0          44.23         -32.51          133.9          152.5
     0.707              -36.37          31.04          70.53          63.78         -6.232          -14.0         -120.8          44.18         -32.61          133.9          152.5
    0.7353              -36.37          31.01          70.48          63.78         -6.228         -13.97         -120.6          44.12         -32.72          133.8          152.5
